<svg fill="#fff" height="800" width="800" xmlns="http://www.w3.org/2000/svg" viewBox="0 0 483.886 483.886" xml:space="preserve">
  <path d="M475.886 377.543h-60v-59.6c0-4.4-3.6-8-8-8s-8 3.6-8 8v59.6h-60c-4.4 0-8 3.6-8 8s3.6 8 8 8h60v60.4c0 4.4 3.6 8 8 8s8-3.6 8-8v-60.4h60c4.4 0 8-3.6 8-8s-3.6-8-8-8m-139.2-123.2c12 3.6 23.2 9.2 32 17.2 3.2 2.8 8.4 2.4 11.2-.8s2.4-8.4-.8-11.2c-10.8-9.6-24-16.4-38.8-20.4l-4.8-1.2c-7.6-2-16 .8-20.8 6.4-17.6 20-40 21.6-63.6 21.6-23.2 0-45.6-1.6-63.2-21.6-5.2-6-13.2-8.4-20.4-6.4l-4.8 1.2c-33.2 8.8-59.6 34.4-69.2 67.6l-6.8 23.2h-67.2c-1.6 0-2.4-.8-2.8-1.2s-1.2-1.6-.8-3.2l13.2-46.8c11.2-37.2 34.8-49.2 77.2-59.2.8 0 1.2-.4 2-.8 2.8 2 6 4 8.8 5.6 1.2.8 2.4.8 3.6.8 2.8 0 5.6-1.6 7.2-4.4 2-4 .4-8.8-3.2-10.8-23.6-12-40.8-46.8-40.8-82.4 0-32.4 26-58.4 58.4-58.4 9.6 0 18.4 2.4 27.2 6.8-4.8 11.2-7.6 23.6-7.6 36.4 0 68.4 41.2 126 90.4 126 48 0 90.4-58.8 90.4-126 0-50-40.4-90.4-90.4-90.4-31.2 0-58.8 16-75.2 40l-.4-.4c-10.8-5.6-22.4-8.4-34.4-8.4-41.2 0-74.4 33.2-74.4 74.4 0 30 10.4 58.8 26.8 78-36.4 9.2-66.8 22.8-80.8 68.4l-13.2 47.2c-1.6 6-.4 12.4 3.6 17.2 3.6 4.8 9.2 7.6 15.2 7.6h62.4l-5.6 18.8c-2 6.8-.8 14 3.6 19.6s11.2 9.2 18.4 9.2h169.6c4.4 0 8-3.6 8-8s-3.6-8-8-8h-169.6c-2 0-4-.8-5.2-2.8-.8-.8-1.6-2.8-.8-5.6l16.8-58.4c8-27.6 30-49.2 58-56.4l4.8-1.2c1.6-.4 3.2.4 4.4 1.6 22 25.2 49.2 27.2 75.6 27.2s53.6-2 75.6-27.2c0 0 0-.4.4-.4.8-.8 2.8-1.6 4-1.2zm-84.4-216.4c33.2 0 61.2 22 70.8 52-14 2.8-28.8-2.8-37.6-14.8-2.8-3.6-7.6-4.4-11.2-1.6-1.6 1.2-2.4 2.4-2.8 4-.4.4-.4.8-.8 1.2-11.2 22.8-48.8 32.4-92 24 4.8-36.4 36-64.8 73.6-64.8m-43.6 83.6c32 0 58.4-10 72-28.8 10 8.8 22.4 13.6 35.6 13.6 3.2 0 6.8-.4 10-1.2.4 2.4.4 4.4.4 6.8 0 58.8-34.8 110.4-74.4 110.4-38 0-72-47.6-74.4-103.6 10.8 2 20.8 2.8 30.8 2.8" />
</svg>