<svg fill="#ffffff" height="200px" width="200px" version="1.1" id="Layer_1" xmlns="http://www.w3.org/2000/svg" xmlns:xlink="http://www.w3.org/1999/xlink" viewBox="0 0 512 512" xml:space="preserve" stroke="#ffffff">
  <g id="SVGRepo_bgCarrier" stroke-width="0"></g>
  <g id="SVGRepo_tracerCarrier" stroke-linecap="round" stroke-linejoin="round"></g>
  <g id="SVGRepo_iconCarrier">
    <g>
      <g>
        <path d="M452.872,192.278c-11.159-14.854-26.551-26.394-43.797-32.938v-48.808c16.388-11.294,26.394-29.982,26.394-49.814 C435.469,27.237,408.23,0,374.751,0c-33.474,0-60.707,27.237-60.707,60.718c0,19.832,10.005,38.519,26.394,49.814v48.802 c-21.262,8.03-39.097,23.285-50.412,43.006c-25.459-14.98-54.367-22.882-84.168-22.882c-91.682,0-166.271,74.589-166.271,166.271 C39.586,437.412,114.175,512,205.857,512c24.749,0,49.152-5.541,71.337-16.076c0.719,9.709,5.8,16.076,13.109,16.076h168.904 c6.403,0,13.207-4.628,13.207-13.207V250.718C472.415,229.507,465.657,209.298,452.872,192.278z M350.714,172.567l5.583-1.73 v-69.22l-3.941-2.295c-14.06-8.185-22.453-22.616-22.453-38.605c0-24.734,20.118-44.856,44.846-44.856 c24.734,0,44.856,20.122,44.856,44.856c0,15.99-8.394,30.421-22.453,38.605l-3.941,2.294v69.219l5.582,1.73 c34.007,10.539,57.758,42.677,57.758,78.152v2.633H344.105c-10.93-16.309-24.866-30.765-40.765-42.308 C313.603,192.678,330.546,178.815,350.714,172.567z M281.026,476.034c-22.752,13.152-48.746,20.105-75.169,20.105 c-82.937-0.001-150.41-67.475-150.41-150.411s67.474-150.41,150.41-150.41c29.631,0,58.295,8.605,82.893,24.887 c17.928,11.861,33.416,27.766,44.788,45.994l0.001,0.002c14.87,23.815,22.727,51.314,22.727,79.528 c0,8.321-0.683,16.658-2.03,24.781C346.881,414.931,320.196,453.392,281.026,476.034z M456.554,496.138H293.224 c-0.152-0.841-0.266-8.756-0.266-8.756c39.094-24.05,66.259-62.673,75.609-107.33h87.987V496.138z M456.554,364.192h-85.448 c0.675-6.113,1.024-12.293,1.024-18.463c-0.001-26.777-6.426-52.971-18.647-76.516h103.071V364.192z"></path>
      </g>
    </g>
    <g>
      <g>
        <path d="M205.857,226.958c-16.012,0-29.037,13.031-29.037,29.048c0,16.012,13.026,29.037,29.037,29.037 c16.017,0,29.048-13.026,29.048-29.037C234.905,239.988,221.874,226.958,205.857,226.958z M205.857,269.181 c-7.265,0-13.176-5.91-13.176-13.176c0-7.271,5.911-13.186,13.176-13.186c7.271,0,13.186,5.915,13.186,13.186 C219.043,263.271,213.128,269.181,205.857,269.181z"></path>
      </g>
    </g>
    <g>
      <g>
        <path d="M163.632,300.851c-16.016,0-29.048,13.031-29.048,29.048c0,16.012,13.031,29.037,29.048,29.037 s29.049-13.025,29.049-29.037C192.681,313.882,179.651,300.851,163.632,300.851z M163.632,343.075 c-7.271,0-13.186-5.91-13.186-13.176c0-7.271,5.915-13.186,13.186-13.186s13.187,5.915,13.187,13.186 C176.82,337.165,170.903,343.075,163.632,343.075z"></path>
      </g>
    </g>
    <g>
      <g>
        <path d="M248.08,300.851c-16.012,0-29.037,13.031-29.037,29.048c0,16.012,13.025,29.037,29.037,29.037 c16.016,0,29.048-13.025,29.048-29.037C277.127,313.882,264.096,300.851,248.08,300.851z M248.08,343.075 c-7.265,0-13.176-5.91-13.176-13.176c0-7.271,5.911-13.186,13.176-13.186c7.271,0,13.186,5.915,13.186,13.186 C261.266,337.165,255.351,343.075,248.08,343.075z"></path>
      </g>
    </g>
  </g>
</svg>