<svg width="33" height="32" viewBox="0 0 33 32" fill="none" xmlns="http://www.w3.org/2000/svg">
  <path d="M33 15.984C33 7.16 25.608 0 16.5 0C7.392 0 0 7.16 0 15.984C0 20.844 2.277 25.224 5.841 28.164C5.874 28.196 5.907 28.196 5.907 28.228C6.204 28.452 6.501 28.676 6.831 28.9C6.996 28.996 7.128 29.122 7.293 29.25C10.0209 31.0405 13.239 31.9983 16.533 32C19.827 31.9983 23.0451 31.0405 25.773 29.25C25.938 29.154 26.07 29.028 26.235 28.93C26.532 28.708 26.862 28.484 27.159 28.26C27.192 28.228 27.225 28.228 27.225 28.196C30.723 25.222 33 20.844 33 15.984ZM16.5 29.986C13.398 29.986 10.56 29.026 8.217 27.428C8.25 27.172 8.316 26.918 8.382 26.662C8.57929 25.9684 8.86765 25.3023 9.24 24.68C9.603 24.072 10.032 23.528 10.56 23.048C11.055 22.568 11.649 22.122 12.243 21.77C12.87 21.418 13.53 21.162 14.256 20.97C14.9879 20.7799 15.7423 20.6838 16.5 20.684C18.7497 20.6675 20.9169 21.5044 22.539 23.016C23.298 23.752 23.892 24.6153 24.321 25.606C24.552 26.182 24.717 26.7893 24.816 27.428C22.3806 29.0883 19.4771 29.9814 16.5 29.986ZM11.451 15.186C11.1608 14.5403 11.0146 13.8423 11.022 13.138C11.022 12.436 11.154 11.732 11.451 11.092C11.748 10.452 12.144 9.878 12.639 9.398C13.134 8.918 13.728 8.536 14.388 8.248C15.048 7.96 15.774 7.832 16.5 7.832C17.259 7.832 17.952 7.96 18.612 8.248C19.272 8.536 19.866 8.92 20.361 9.398C20.856 9.878 21.252 10.454 21.549 11.092C21.846 11.732 21.978 12.436 21.978 13.138C21.978 13.874 21.846 14.546 21.549 15.184C21.264 15.8154 20.8613 16.3904 20.361 16.88C19.8559 17.3644 19.263 17.7542 18.612 18.03C17.2481 18.5723 15.7189 18.5723 14.355 18.03C13.704 17.7542 13.1111 17.3644 12.606 16.88C12.1053 16.3973 11.7122 15.822 11.451 15.186ZM26.763 25.798C26.763 25.734 26.73 25.702 26.73 25.638C26.406 24.6366 25.9276 23.6885 25.311 22.826C24.6939 21.9571 23.9361 21.1906 23.067 20.556C22.403 20.0715 21.6832 19.6634 20.922 19.34C21.2667 19.1164 21.5873 18.8598 21.879 18.574C22.371 18.103 22.8031 17.5766 23.166 17.006C23.8994 15.8427 24.277 14.5013 24.255 13.138C24.2658 12.129 24.0636 11.1285 23.661 10.198C23.264 9.3013 22.6926 8.48714 21.978 7.8C21.2628 7.1221 20.4234 6.57949 19.503 6.2C18.542 5.80971 17.5088 5.61436 16.467 5.626C15.4251 5.61499 14.3918 5.81102 13.431 6.202C12.5005 6.57686 11.6584 7.13145 10.956 7.832C10.2533 8.52194 9.6932 9.33591 9.306 10.23C8.90336 11.1605 8.70121 12.161 8.712 13.17C8.712 13.874 8.811 14.5453 9.009 15.184C9.207 15.856 9.471 16.464 9.834 17.038C10.164 17.614 10.626 18.126 11.121 18.606C11.418 18.894 11.748 19.1493 12.111 19.372C11.3464 19.7021 10.6261 20.1211 9.966 20.62C9.108 21.26 8.349 22.026 7.722 22.858C7.09969 23.7173 6.62082 24.6662 6.303 25.67C6.27 25.734 6.27 25.798 6.27 25.83C3.663 23.272 2.046 19.82 2.046 15.984C2.046 8.28 8.547 1.982 16.5 1.982C24.453 1.982 30.954 8.28 30.954 15.984C30.9497 19.6639 29.4428 23.1925 26.763 25.798Z" fill="#fff" />
</svg>