<svg width="29" height="31" viewBox="0 0 29 31" fill="none" xmlns="http://www.w3.org/2000/svg">
  <path d="M14.4414 24.7284H24.9402C25.349 24.7513 25.7569 24.6691 26.125 24.4897C26.493 24.3102 26.809 24.0395 27.0427 23.7032C27.2764 23.367 27.4201 22.9765 27.4601 22.569C27.5001 22.1615 27.4351 21.7505 27.2712 21.3753C26.7162 19.6979 24.5039 17.6861 24.5039 15.7066C24.5039 11.3128 24.5039 10.1566 22.3394 7.57274C21.6381 6.7419 20.7699 6.06797 19.791 5.59478L18.5839 5.00895C18.3806 4.88751 18.2054 4.72446 18.0696 4.5305C17.9338 4.33655 17.8406 4.11606 17.7961 3.88353C17.6754 3.10099 17.2617 2.39364 16.6387 1.90494C16.0157 1.41624 15.2302 1.18278 14.4414 1.25191C13.6669 1.2054 12.9029 1.44927 12.2985 1.93588C11.6942 2.4225 11.2929 3.11692 11.1731 3.88353C11.1188 4.12375 11.0124 4.34909 10.8614 4.54358C10.7103 4.73808 10.5183 4.89695 10.299 5.00895L9.09184 5.59478C8.11355 6.06816 7.24581 6.74207 6.54501 7.57274C4.38205 10.1566 4.38205 11.3128 4.38205 15.7066C4.38205 17.6861 2.26997 19.496 1.71497 21.2735C1.38042 22.3481 1.19542 24.7284 3.99663 24.7284H14.4414Z" stroke="#fff" stroke-width="1.5" stroke-linecap="round" stroke-linejoin="round" />
  <path d="M19.4718 24.7322C19.4854 25.3965 19.3646 26.0568 19.1167 26.6733C18.8687 27.2898 18.4986 27.8498 18.0288 28.3196C17.5589 28.7895 16.9989 29.1595 16.3824 29.4075C15.7659 29.6555 15.1057 29.7763 14.4413 29.7626C13.7769 29.7767 13.1165 29.6562 12.4999 29.4084C11.8833 29.1606 11.3232 28.7905 10.8534 28.3205C10.3836 27.8505 10.0137 27.2904 9.76605 26.6737C9.5184 26.057 9.3981 25.3966 9.41239 24.7322" stroke="#fff" stroke-width="1.5" stroke-linecap="round" stroke-linejoin="round" />
</svg>